<?xml version="1.0" standalone="no"?>
<!DOCTYPE svg PUBLIC "-//W3C//DTD SVG 20010904//EN"
 "http://www.w3.org/TR/2001/REC-SVG-20010904/DTD/svg10.dtd">
<svg version="1.0" xmlns="http://www.w3.org/2000/svg"
 width="512.000000pt" height="512.000000pt" viewBox="0 0 512.000000 512.000000"
 preserveAspectRatio="xMidYMid meet">
<metadata>
Created by potrace 1.14, written by Peter Selinger 2001-2017
</metadata>
<g transform="translate(0.000000,512.000000) scale(0.100000,-0.100000)"
fill="#000000" stroke="none">
<path d="M2443 5090 c-33 -15 -67 -37 -75 -49 -8 -11 -17 -19 -19 -16 -3 2
-14 -12 -24 -33 -11 -20 -22 -39 -25 -42 -7 -7 -13 -31 -14 -52 0 -10 -4 -18
-8 -18 -5 0 -4 -9 2 -19 14 -28 4 -31 -97 -36 -49 -2 -88 -5 -88 -6 0 -1 -13
-3 -30 -4 -42 -4 -155 -16 -185 -20 -45 -6 -105 -16 -130 -21 -14 -2 -38 -7
-54 -10 -72 -13 -235 -56 -281 -74 -16 -6 -37 -13 -45 -15 -8 -2 -37 -13 -65
-26 -27 -12 -53 -22 -57 -21 -5 1 -8 -3 -8 -8 0 -5 -3 -9 -7 -8 -12 4 -113
-54 -113 -64 0 -5 -4 -7 -10 -3 -5 3 -47 -32 -93 -77 -92 -91 -142 -177 -157
-271 -9 -59 -6 -2633 4 -2687 3 -19 8 -48 11 -65 2 -16 7 -41 10 -55 3 -14 7
-36 10 -50 4 -23 13 -61 19 -85 3 -16 27 -88 33 -105 4 -8 7 -17 8 -20 4 -12
18 -47 25 -65 5 -11 14 -35 22 -53 7 -17 17 -32 22 -32 4 0 6 -6 3 -14 -3 -8
1 -17 10 -20 9 -4 13 -9 10 -13 -7 -6 42 -96 55 -101 5 -2 6 -7 3 -12 -2 -4 7
-20 20 -36 14 -16 25 -34 25 -40 0 -7 7 -14 15 -18 8 -3 15 -12 15 -21 0 -8 5
-15 10 -15 6 0 14 -8 17 -17 4 -10 25 -38 47 -63 53 -59 215 -220 222 -220 2
0 15 -9 27 -21 50 -47 291 -198 327 -204 3 -1 21 -9 40 -17 73 -34 106 -47
135 -54 17 -4 35 -10 40 -14 6 -4 37 -13 70 -20 33 -8 62 -14 65 -15 59 -14
105 -23 165 -32 56 -8 356 -10 398 -3 23 5 62 11 87 15 74 10 83 12 130 24 25
7 59 14 75 17 17 3 36 11 43 16 6 6 12 8 12 4 0 -4 14 0 30 9 17 9 30 13 30 9
0 -4 6 -1 14 5 8 7 24 14 37 16 12 3 26 10 31 17 4 7 8 10 8 5 0 -4 15 0 33
10 17 9 39 18 47 19 8 2 16 8 18 14 2 5 7 8 12 5 5 -3 14 0 22 7 7 7 27 20 43
28 17 8 35 18 40 23 6 4 43 30 84 58 40 28 82 58 94 68 43 34 214 208 252 256
22 28 43 52 48 53 4 2 7 8 7 13 0 6 9 19 20 31 11 12 20 28 20 35 0 7 4 13 9
13 5 0 14 13 21 30 7 16 17 30 22 30 5 0 7 4 4 8 -3 5 4 18 14 30 11 12 20 28
20 37 0 8 4 15 10 15 5 0 9 3 8 8 -4 10 26 72 34 72 4 0 5 7 2 15 -4 8 -1 15
5 15 6 0 11 7 11 16 0 8 9 36 19 62 17 42 32 83 32 89 1 2 7 26 15 55 27 96
40 173 52 288 9 98 9 2625 -1 2667 -36 157 -163 293 -372 400 -75 39 -276 107
-375 128 -41 9 -84 18 -95 21 -11 2 -33 6 -50 9 -16 2 -46 7 -65 10 -19 3 -53
8 -75 10 -22 3 -51 8 -65 10 -42 6 -161 17 -235 20 -38 2 -73 4 -76 4 -4 1 -6
9 -6 19 1 28 -15 92 -24 98 -5 3 -9 12 -9 20 0 8 -17 33 -37 55 -88 95 -219
122 -330 69z"/>
</g>
</svg>
